<svg xmlns="http://www.w3.org/2000/svg" width="1200" height="760" viewBox="0 0 1200 760" role="img" aria-labelledby="title desc">
  <title id="title">Contact Visual</title>
  <desc id="desc">Modern contact-themed abstract visual.</desc>
  <defs>
    <linearGradient id="bg" x1="0" y1="0" x2="1" y2="1">
      <stop offset="0%" stop-color="#f7fbff"/>
      <stop offset="100%" stop-color="#e6f1fb"/>
    </linearGradient>
  </defs>
  <rect width="1200" height="760" rx="24" fill="url(#bg)"/>
  <g transform="translate(110 88)">
    <rect width="980" height="584" rx="22" fill="#ffffff" stroke="#d8e6f6" stroke-width="4"/>
    <rect x="56" y="56" width="320" height="20" rx="10" fill="#dce9f8"/>
    <rect x="56" y="90" width="460" height="14" rx="7" fill="#eaf2fb"/>
    <rect x="56" y="146" width="420" height="352" rx="18" fill="#f5f9fe" stroke="#dfeaf8"/>
    <rect x="514" y="146" width="410" height="352" rx="18" fill="#f5f9fe" stroke="#dfeaf8"/>
    <circle cx="719" cy="322" r="96" fill="#2a4d6f"/>
    <circle cx="719" cy="322" r="42" fill="#8ec5ff"/>
    <ellipse cx="719" cy="322" rx="158" ry="48" fill="none" stroke="#c4dbf2" stroke-width="7"/>
    <rect x="118" y="218" width="290" height="18" rx="9" fill="#dfeaf9"/>
    <rect x="118" y="256" width="230" height="14" rx="7" fill="#ecf4fc"/>
    <rect x="118" y="308" width="250" height="14" rx="7" fill="#ecf4fc"/>
    <rect x="118" y="360" width="210" height="14" rx="7" fill="#ecf4fc"/>
  </g>
</svg>
